<svg xmlns="http://www.w3.org/2000/svg" width="4535.427" height="4535.427"><defs><clipPath id="a" clipPathUnits="userSpaceOnUse"><path d="M-478.913 2405.755h3401.575V-995.82H-478.913Z"/></clipPath><clipPath id="b" clipPathUnits="userSpaceOnUse"><path d="M-2660.162 2418.255H741.413V-983.32h-3401.575Z"/></clipPath><clipPath id="c" clipPathUnits="userSpaceOnUse"><path d="M-2660.162 1468.255H741.413V-1933.32h-3401.575Z"/></clipPath></defs><path d="m0 0-1087.5-628.686 818.75-487.5L550-628.686l262.5-156.25L0-1266.185l273.741-155.728L1356.25-784.936l-806.25 475-818.75-475-267.882 156.25 810.373 468.75z" style="fill:#383a39;fill-opacity:1;fill-rule:nonzero;stroke:none" transform="matrix(1.33333 0 0 -1.33333 2088.55 269.42)"/><path d="M0 0v1574.999l275-163.74L543.75 943.75l275 143.749L1087.5 937.5v-1575L812.136-476.725l.114 1258.497L543.75 625 275 1087.76V-150Z" clip-path="url(#a)" style="fill:#e3ad0c;fill-opacity:1;fill-rule:nonzero;stroke:none" transform="matrix(1.33333 0 0 -1.33333 638.55 3207.667)"/><path d="m0 0-544.5-306.25v950L0 950Zm-820.008 794.272V-781.25L262.5-156.407v1587.656z" clip-path="url(#b)" style="fill:#315ba6;fill-opacity:1;fill-rule:nonzero;stroke:none" transform="matrix(1.33333 0 0 -1.33333 3546.883 3224.334)"/><path d="m0 0-276.637-155.592v-631.675L0-950Z" clip-path="url(#c)" style="fill:#e3ad0c;fill-opacity:1;fill-rule:nonzero;stroke:none" transform="matrix(1.33333 0 0 -1.33333 3546.883 1957.667)"/></svg>